<svg width="2494" height="750" viewBox="0 0 2494 750" fill="none" xmlns="http://www.w3.org/2000/svg">
<path fill-rule="evenodd" clip-rule="evenodd" d="M348 390V480H630V0H540V390H348Z" fill="url(#paint0_linear_15_14)"/>
<rect x="540" y="503" width="90" height="247" fill="url(#paint1_linear_15_14)"/>
<path fill-rule="evenodd" clip-rule="evenodd" d="M0.222412 750L433.235 0H537.158L104.145 750H0.222412Z" fill="url(#paint2_linear_15_14)"/>
<path d="M965.896 324L950.955 265.396H879.734L864.461 324H817.312L889.197 84.4395H944.979L1016.86 324H965.896ZM914.432 131.422L889.197 228.541H941.492L916.59 131.422H914.432ZM1147.68 138.062C1189.69 138.062 1214.42 166.949 1214.42 216.754V248.297C1214.42 298.268 1189.69 327.154 1147.68 327.154C1121.29 327.154 1103.03 314.869 1096.88 292.955H1093.56V384.928H1046.25V140.885H1092.9V172.428H1096.38C1102.86 150.348 1120.96 138.062 1147.68 138.062ZM1130.25 177.574C1106.68 177.574 1092.4 192.848 1092.4 218.082V248.463C1092.4 273.697 1106.68 288.971 1130.25 288.971C1153.66 288.971 1168.1 273.531 1168.1 248.463V218.082C1168.1 193.014 1153.66 177.574 1130.25 177.574ZM1357.86 138.062C1399.86 138.062 1424.6 166.949 1424.6 216.754V248.297C1424.6 298.268 1399.86 327.154 1357.86 327.154C1331.46 327.154 1313.2 314.869 1307.06 292.955H1303.74V384.928H1256.42V140.885H1303.07V172.428H1306.56C1313.04 150.348 1331.13 138.062 1357.86 138.062ZM1340.43 177.574C1316.85 177.574 1302.58 192.848 1302.58 218.082V248.463C1302.58 273.697 1316.85 288.971 1340.43 288.971C1363.84 288.971 1378.28 273.531 1378.28 248.463V218.082C1378.28 193.014 1363.84 177.574 1340.43 177.574ZM1544.13 242.818V290.631H1597.25V324H1465.77V290.631H1500.63V174.42H1462.45V140.885H1544.46V187.867H1551.6C1559.57 151.51 1578.33 136.07 1612.86 136.07C1623.15 136.07 1632.45 137.398 1638.92 139.889V189.195C1630.62 186.041 1618.67 183.883 1608.38 183.883C1565.21 183.883 1544.13 203.473 1544.13 242.818ZM1757.79 327.984C1706.16 327.984 1673.62 296.607 1673.62 246.637V218.414C1673.62 168.443 1706.16 137.066 1757.79 137.066C1809.42 137.066 1841.96 168.443 1841.96 218.414V246.637C1841.96 296.607 1809.42 327.984 1757.79 327.984ZM1757.79 174.254C1733.39 174.254 1718.28 191.852 1718.28 220.24V244.811C1718.28 273.033 1733.39 290.797 1757.79 290.797C1782.2 290.797 1797.3 273.033 1797.3 244.811V220.24C1797.3 191.852 1782.2 174.254 1757.79 174.254ZM1878.48 140.885H1927.29L1967.3 279.674H1969.96L2009.47 140.885H2057.45L1994.03 324H1942.23L1878.48 140.885ZM2153.41 326.988C2118.88 326.988 2095.63 304.742 2095.63 271.705C2095.63 238.668 2119.71 219.244 2164.86 216.09L2207.69 213.434V198.824C2207.69 182.887 2196.74 173.59 2177.98 173.59C2162.21 173.59 2150.42 180.562 2146.6 192.018H2102.44C2105.76 158.814 2135.81 137.398 2179.3 137.398C2226.29 137.398 2252.68 159.811 2252.68 199.82V324H2209.52V299.596H2205.54C2196.57 316.861 2177.31 326.988 2153.41 326.988ZM2169.01 290.631C2191.59 290.631 2207.69 276.354 2207.69 255.934V242.652L2172.5 244.811C2151.25 246.139 2140.46 254.273 2140.46 268.385C2140.46 281.998 2151.41 290.631 2169.01 290.631ZM2469.17 324H2310.96V287.809H2369.06V107.35H2313.94V71.1582H2414.55V287.809H2469.17V324Z" fill="black"/>
<path d="M827.381 642.393H851.917C853.87 660.703 868.396 671.567 890.857 671.567C913.074 671.567 927.356 660.215 927.356 642.515C927.356 628.232 917.957 619.81 895.13 614.194L879.017 610.41C846.546 602.354 831.531 586.484 831.531 560.85C831.531 530.088 854.725 510.19 890.613 510.19C924.915 510.19 948.353 529.844 949.695 559.629H925.281C923.328 542.417 910.511 532.285 890.857 532.285C869.739 532.285 857.044 542.295 857.044 559.019C857.044 573.423 866.199 581.724 888.05 586.973L904.163 591.001C938.343 599.18 952.869 614.194 952.869 640.806C952.869 673.276 928.821 693.662 890.613 693.662C853.138 693.662 829.09 674.131 827.381 642.393ZM1005.85 737.607C1002.06 737.607 997.425 737.363 995.838 737.241V716.611C997.181 716.855 1001.21 716.978 1003.16 716.978C1015.98 716.978 1022.94 711.606 1027.82 697.568L1029.9 690.977L981.434 556.943H1008.29L1043.32 665.83H1045.03L1079.82 556.943H1105.82L1057 694.028C1045.4 727.109 1032.95 737.607 1005.85 737.607ZM1148.3 593.687C1148.3 569.883 1168.2 554.258 1198.72 554.258C1227.77 554.258 1246.81 568.174 1249.01 591.245H1225.57C1223.38 580.381 1213 573.667 1198.35 573.667C1182.73 573.667 1172.6 580.991 1172.6 591.978C1172.6 601.499 1179.07 606.748 1194.57 610.166L1213.86 614.438C1240.1 620.298 1251.94 631.528 1251.94 651.06C1251.94 676.328 1231.07 692.441 1198.6 692.441C1167.22 692.441 1146.96 678.403 1144.76 654.966H1169.42C1172.11 666.318 1183.09 672.788 1199.21 672.788C1215.93 672.788 1226.67 665.342 1226.67 653.745C1226.67 643.979 1220.69 638.975 1204.58 635.312L1184.68 630.796C1160.39 625.303 1148.3 613.096 1148.3 593.687ZM1328.72 520.566H1352.89V557.676H1405.51V577.817H1353.26V649.717C1353.26 662.9 1362.42 670.103 1379.38 670.103C1385.61 670.103 1401.84 669.858 1404.77 669.492V689.512C1402.09 690 1382.8 690.488 1377.67 690.488C1343.62 690.488 1328.72 678.281 1328.72 649.717V577.817H1293.57V557.676H1328.72V520.566ZM1541.25 654.844H1564.69C1561.15 677.183 1539.17 692.563 1510.49 692.563C1473.13 692.563 1451.77 670.591 1451.77 632.749V612.485C1451.77 577.451 1474.6 554.38 1509.14 554.38C1543.93 554.38 1565.05 577.329 1565.05 615.171V629.575H1475.82V635.557C1475.82 658.018 1489.37 672.422 1510.36 672.422C1526.11 672.422 1537.95 665.708 1541.25 654.844ZM1508.9 574.399C1488.27 574.399 1475.82 588.56 1475.82 612.363H1541C1541 588.682 1529.04 574.399 1508.9 574.399ZM1727.04 590.513V690H1705.55V598.081C1705.55 583.799 1699.94 576.108 1689.93 576.108C1679.43 576.108 1672.84 585.142 1672.84 599.79V690H1651.48V597.959C1651.48 583.677 1645.98 576.108 1635.85 576.108C1625.11 576.108 1618.4 585.142 1618.4 599.79V690H1596.91V556.943H1618.52V576.23H1621.2C1624.38 562.437 1633.78 554.38 1646.47 554.38C1658.92 554.38 1667.59 562.192 1670.4 575.742H1673.08C1676.26 562.559 1686.51 554.38 1699.7 554.38C1717.64 554.38 1727.04 566.953 1727.04 590.513Z" fill="black"/>
<defs>
<linearGradient id="paint0_linear_15_14" x1="489" y1="0" x2="489" y2="985.5" gradientUnits="userSpaceOnUse">
<stop stop-color="#157768"/>
<stop offset="1" stop-color="#27DDC1"/>
</linearGradient>
<linearGradient id="paint1_linear_15_14" x1="585" y1="503" x2="585" y2="750" gradientUnits="userSpaceOnUse">
<stop stop-color="#183EA2"/>
<stop offset="1" stop-color="#204FC8"/>
</linearGradient>
<linearGradient id="paint2_linear_15_14" x1="268.69" y1="6.60887e-09" x2="269" y2="976" gradientUnits="userSpaceOnUse">
<stop stop-color="#183EA2"/>
<stop offset="1" stop-color="#2659E1"/>
</linearGradient>
</defs>
</svg>
