<svg width="2494" height="750" viewBox="0 0 2494 750" fill="none" xmlns="http://www.w3.org/2000/svg">
<path fill-rule="evenodd" clip-rule="evenodd" d="M347.778 390V480H629.778V0H539.778V390H347.778Z" fill="url(#paint0_linear_19_25)"/>
<rect x="539.778" y="503" width="90" height="247" fill="url(#paint1_linear_19_25)"/>
<path fill-rule="evenodd" clip-rule="evenodd" d="M0 750L433.013 0H536.936L103.923 750H0Z" fill="url(#paint2_linear_19_25)"/>
<path d="M965.674 324L950.733 265.396H879.512L864.239 324H817.09L888.975 84.4395H944.756L1016.64 324H965.674ZM914.209 131.422L888.975 228.541H941.27L916.367 131.422H914.209ZM1147.46 138.062C1189.46 138.062 1214.2 166.949 1214.2 216.754V248.297C1214.2 298.268 1189.46 327.154 1147.46 327.154C1121.06 327.154 1102.8 314.869 1096.66 292.955H1093.34V384.928H1046.03V140.885H1092.68V172.428H1096.16C1102.64 150.348 1120.73 138.062 1147.46 138.062ZM1130.03 177.574C1106.46 177.574 1092.18 192.848 1092.18 218.082V248.463C1092.18 273.697 1106.46 288.971 1130.03 288.971C1153.44 288.971 1167.88 273.531 1167.88 248.463V218.082C1167.88 193.014 1153.44 177.574 1130.03 177.574ZM1357.64 138.062C1399.64 138.062 1424.38 166.949 1424.38 216.754V248.297C1424.38 298.268 1399.64 327.154 1357.64 327.154C1331.24 327.154 1312.98 314.869 1306.84 292.955H1303.52V384.928H1256.2V140.885H1302.85V172.428H1306.34C1312.81 150.348 1330.91 138.062 1357.64 138.062ZM1340.21 177.574C1316.63 177.574 1302.35 192.848 1302.35 218.082V248.463C1302.35 273.697 1316.63 288.971 1340.21 288.971C1363.61 288.971 1378.06 273.531 1378.06 248.463V218.082C1378.06 193.014 1363.61 177.574 1340.21 177.574ZM1543.91 242.818V290.631H1597.03V324H1465.55V290.631H1500.41V174.42H1462.23V140.885H1544.24V187.867H1551.38C1559.35 151.51 1578.11 136.07 1612.64 136.07C1622.93 136.07 1632.23 137.398 1638.7 139.889V189.195C1630.4 186.041 1618.45 183.883 1608.15 183.883C1564.99 183.883 1543.91 203.473 1543.91 242.818ZM1757.57 327.984C1705.94 327.984 1673.4 296.607 1673.4 246.637V218.414C1673.4 168.443 1705.94 137.066 1757.57 137.066C1809.2 137.066 1841.74 168.443 1841.74 218.414V246.637C1841.74 296.607 1809.2 327.984 1757.57 327.984ZM1757.57 174.254C1733.16 174.254 1718.06 191.852 1718.06 220.24V244.811C1718.06 273.033 1733.16 290.797 1757.57 290.797C1781.97 290.797 1797.08 273.033 1797.08 244.811V220.24C1797.08 191.852 1781.97 174.254 1757.57 174.254ZM1878.26 140.885H1927.07L1967.08 279.674H1969.74L2009.25 140.885H2057.23L1993.81 324H1942.01L1878.26 140.885ZM2153.18 326.988C2118.65 326.988 2095.41 304.742 2095.41 271.705C2095.41 238.668 2119.48 219.244 2164.64 216.09L2207.47 213.434V198.824C2207.47 182.887 2196.51 173.59 2177.75 173.59C2161.98 173.59 2150.2 180.562 2146.38 192.018H2102.22C2105.54 158.814 2135.59 137.398 2179.08 137.398C2226.06 137.398 2252.46 159.811 2252.46 199.82V324H2209.3V299.596H2205.31C2196.35 316.861 2177.09 326.988 2153.18 326.988ZM2168.79 290.631C2191.37 290.631 2207.47 276.354 2207.47 255.934V242.652L2172.28 244.811C2151.03 246.139 2140.23 254.273 2140.23 268.385C2140.23 281.998 2151.19 290.631 2168.79 290.631ZM2468.95 324H2310.73V287.809H2368.84V107.35H2313.72V71.1582H2414.33V287.809H2468.95V324Z" fill="white"/>
<path d="M827.158 642.393H851.695C853.648 660.703 868.174 671.567 890.635 671.567C912.852 671.567 927.134 660.215 927.134 642.515C927.134 628.232 917.735 619.81 894.907 614.194L878.794 610.41C846.323 602.354 831.309 586.484 831.309 560.85C831.309 530.088 854.502 510.19 890.391 510.19C924.693 510.19 948.13 529.844 949.473 559.629H925.059C923.106 542.417 910.288 532.285 890.635 532.285C869.517 532.285 856.822 542.295 856.822 559.019C856.822 573.423 865.977 581.724 887.827 586.973L903.941 591.001C938.12 599.18 952.647 614.194 952.647 640.806C952.647 673.276 928.599 693.662 890.391 693.662C852.915 693.662 828.867 674.131 827.158 642.393ZM1005.63 737.607C1001.84 737.607 997.202 737.363 995.615 737.241V716.611C996.958 716.855 1000.99 716.978 1002.94 716.978C1015.76 716.978 1022.72 711.606 1027.6 697.568L1029.67 690.977L981.211 556.943H1008.07L1043.1 665.83H1044.81L1079.6 556.943H1105.6L1056.77 694.028C1045.18 727.109 1032.72 737.607 1005.63 737.607ZM1148.08 593.687C1148.08 569.883 1167.98 554.258 1198.5 554.258C1227.55 554.258 1246.59 568.174 1248.79 591.245H1225.35C1223.15 580.381 1212.78 573.667 1198.13 573.667C1182.51 573.667 1172.37 580.991 1172.37 591.978C1172.37 601.499 1178.84 606.748 1194.35 610.166L1213.63 614.438C1239.88 620.298 1251.72 631.528 1251.72 651.06C1251.72 676.328 1230.84 692.441 1198.37 692.441C1167 692.441 1146.74 678.403 1144.54 654.966H1169.2C1171.89 666.318 1182.87 672.788 1198.98 672.788C1215.71 672.788 1226.45 665.342 1226.45 653.745C1226.45 643.979 1220.47 638.975 1204.36 635.312L1184.46 630.796C1160.17 625.303 1148.08 613.096 1148.08 593.687ZM1328.5 520.566H1352.67V557.676H1405.28V577.817H1353.04V649.717C1353.04 662.9 1362.19 670.103 1379.16 670.103C1385.39 670.103 1401.62 669.858 1404.55 669.492V689.512C1401.87 690 1382.58 690.488 1377.45 690.488C1343.39 690.488 1328.5 678.281 1328.5 649.717V577.817H1293.34V557.676H1328.5V520.566ZM1541.03 654.844H1564.46C1560.92 677.183 1538.95 692.563 1510.26 692.563C1472.91 692.563 1451.55 670.591 1451.55 632.749V612.485C1451.55 577.451 1474.38 554.38 1508.92 554.38C1543.71 554.38 1564.83 577.329 1564.83 615.171V629.575H1475.6V635.557C1475.6 658.018 1489.15 672.422 1510.14 672.422C1525.89 672.422 1537.73 665.708 1541.03 654.844ZM1508.68 574.399C1488.05 574.399 1475.6 588.56 1475.6 612.363H1540.78C1540.78 588.682 1528.82 574.399 1508.68 574.399ZM1726.82 590.513V690H1705.33V598.081C1705.33 583.799 1699.72 576.108 1689.71 576.108C1679.21 576.108 1672.62 585.142 1672.62 599.79V690H1651.26V597.959C1651.26 583.677 1645.76 576.108 1635.63 576.108C1624.89 576.108 1618.17 585.142 1618.17 599.79V690H1596.69V556.943H1618.3V576.23H1620.98C1624.16 562.437 1633.55 554.38 1646.25 554.38C1658.7 554.38 1667.37 562.192 1670.18 575.742H1672.86C1676.04 562.559 1686.29 554.38 1699.47 554.38C1717.42 554.38 1726.82 566.953 1726.82 590.513Z" fill="white"/>
<defs>
<linearGradient id="paint0_linear_19_25" x1="488.778" y1="0" x2="488.778" y2="985.5" gradientUnits="userSpaceOnUse">
<stop stop-color="#157768"/>
<stop offset="1" stop-color="#27DDC1"/>
</linearGradient>
<linearGradient id="paint1_linear_19_25" x1="584.778" y1="503" x2="584.778" y2="750" gradientUnits="userSpaceOnUse">
<stop stop-color="#183EA2"/>
<stop offset="1" stop-color="#204FC8"/>
</linearGradient>
<linearGradient id="paint2_linear_19_25" x1="268.468" y1="6.60887e-09" x2="268.778" y2="976" gradientUnits="userSpaceOnUse">
<stop stop-color="#183EA2"/>
<stop offset="1" stop-color="#2659E1"/>
</linearGradient>
</defs>
</svg>
